# xmcd CD database file
#
# Track frame offsets:
#	150
#	18710
#	39553
#	60164
#	82995
#	99639
#	118090
#	140393
#	160957
#	181306
#	190336
#	212158
#	231101
#	249092
#	267389
#	285148
#	300106
#
# Disc length: 4301 seconds
#
# Revision: 0
# Processed by: cddbd v1.5.2PL0 Copyright (c) Steve Scherf et al.
# Submitted via: CDex 1.70beta2
#
DISCID=da10cb11
DTITLE=Various Artist - Motéma - Happy 10th Birthday!
DYEAR=2013
DGENRE=Jazz
TTITLE0=Gregory Porter - On My Way To Harlem
TTITLE1=Will Calhoun - Dorita
TTITLE2=René Marie - Black Lace Freudian Slip
TTITLE3=Monty Alexander - King Tubby Meets The Rockers Uptown
TTITLE4=Randy Weston - Fly Hi
TTITLE5=David Murray feat. Gregory Porter - Army Of The faithful (Edit)
TTITLE6=Joe Locke - Ain't No Sunshine
TTITLE7=Geri Allen - Baby I Need Your Lovin'
TTITLE8=Jana Herzen - My Latin Love
TTITLE9=Charnett Moffett - Black Codes (From The Underground)
TTITLE10=Ablaye Cissoko and Volker Goetze - Togna
TTITLE11=Nilson Matta feat. Gretchen Parlato - Eu E O Meu Amor - Lamento No Morro
TTITLE12=Lakecia Benjamin - Smile
TTITLE13=Eldar Djangirov Trio - Morning Bell
TTITLE14=Matuto - Diamond
TTITLE15=Marc Cary - The Music Is The Magic
TTITLE16=Jaimeo Brown - Power Of God
EXTD=YEAR: 2013
EXTT0=
EXTT1=
EXTT2=
EXTT3=
EXTT4=
EXTT5=
EXTT6=
EXTT7=
EXTT8=
EXTT9=
EXTT10=
EXTT11=
EXTT12=
EXTT13=
EXTT14=
EXTT15=
EXTT16=
PLAYORDER=
